<svg xmlns="http://www.w3.org/2000/svg" width="480" height="600" viewBox="0 0 480 600"><rect width="480" height="600" fill="#f5f5f3"/><path d="M140 125 L205 92 L275 92 L340 125 L392 305 L333 320 L303 214 L303 457 L177 457 L177 214 L147 320 L88 305 Z" fill="#363733" stroke="#222" stroke-opacity=".2"/><path d="M205 92 Q240 145 275 92" fill="none" stroke="#bbb"/><path d="M205 92 L240 173 L275 92 M240 173 V455 M186 280 H218 M263 280 H295" stroke="#b2afa7" fill="none"/><path d="M204 92 L190 145 L225 170 M276 92 L289 145 L254 170" fill="#55564f" stroke="#aaa"/><text x="240" y="548" text-anchor="middle" font-family="Arial" font-size="10" letter-spacing="4" fill="#888">D O A — OUTER</text></svg>